<?xml version="1.0" encoding="utf-8"?>
<!-- Generator: Adobe Illustrator 25.4.1, SVG Export Plug-In . SVG Version: 6.00 Build 0)  -->
<svg version="1.1" id="Layer_1" xmlns="http://www.w3.org/2000/svg" xmlns:xlink="http://www.w3.org/1999/xlink" x="0px" y="0px"
	 viewBox="0 0 240 240" style="enable-background:new 0 0 240 240;" xml:space="preserve">
<style type="text/css">
	.st0{fill:#EFEDD5;}
</style>
<g>
	<g transform="scale(10.66667,10.66667)">
		<path class="st0" d="M7.7,2.8C5.1,2.8,3,4.9,3,7.5V15c0,2.6,2.1,4.7,4.7,4.7h7.5c2.6,0,4.7-2.1,4.7-4.7V7.5c0-2.6-2.1-4.7-4.7-4.7
			H7.7z M17.1,4.7c0.5,0,0.9,0.4,0.9,0.9s-0.4,0.9-0.9,0.9s-0.9-0.4-0.9-0.9S16.5,4.7,17.1,4.7z M11.4,6.6c2.6,0,4.7,2.1,4.7,4.7
			s-2.1,4.7-4.7,4.7s-4.7-2.1-4.7-4.7S8.8,6.6,11.4,6.6z M11.4,8.4c-1.6,0-2.8,1.3-2.8,2.8s1.3,2.8,2.8,2.8s2.8-1.3,2.8-2.8
			S13,8.4,11.4,8.4z"/>
	</g>
</g>
</svg>
