<?xml version="1.0" encoding="UTF-8"?>
<svg id="Layer_1" data-name="Layer 1" xmlns="http://www.w3.org/2000/svg" viewBox="0 0 250 250.01">
  <defs>
    <style>
      .cls-1 {
        fill: #eeecd4;
        stroke-width: 0px;
      }
    </style>
  </defs>
  <path class="cls-1" d="m232.8,0C160.92,0,89.05,0,17.17,0,6.51,0,0,6.55,0,17.2,0,53.14,0,89.08,0,125.01c0,36.03,0,72.07,0,108.1,0,10.23,6.62,16.88,16.89,16.88,72.07.02,144.15.02,216.22,0,10.26,0,16.87-6.66,16.87-16.91,0-71.97,0-143.94,0-215.91,0-10.64-6.52-17.17-17.19-17.17Zm-95.91,156.26c-.05,0-.11,0-.16,0,0,12.87.05,25.75-.03,38.62-.03,5.08-1.18,9.97-3.36,14.58-4.38,9.26-12.07,14.01-21.8,15.94-17.9,3.54-35.54-4.56-44.74-20.37-1.18-2.04-1.09-2.97,1.05-4.16,4.81-2.67,9.51-5.55,14.14-8.53,1.65-1.06,2.37-1.03,3.51.71,3.87,5.95,9.13,9.57,16.6,9.29,6.5-.25,9.99-3.33,10.67-9.84.25-2.4.31-4.83.31-7.25.02-23.04.05-46.08-.04-69.12,0-2.35.48-3.15,2.98-3.07,6,.2,12.01.16,18,.01,2.22-.06,2.95.47,2.92,2.83-.12,13.46-.06,26.91-.06,40.37Zm87.81,48.11c-3.51,11.92-12.72,17.81-24.2,20.51-7.72,1.82-15.56,1.8-23.35.1-12.4-2.71-21.36-9.94-27.48-20.93-.69-1.23-.69-1.88.59-2.71,5.04-3.25,10.03-6.57,14.97-9.98,1.25-.86,1.68-.51,2.39.6,1.47,2.27,3.01,4.52,4.74,6.59,5.78,6.88,13.2,8.76,21.72,6.62,4.25-1.07,7.28-3.75,8.07-8.21.82-4.62-.47-8.66-4.43-11.52-4.98-3.6-10.77-5.63-16.32-8.08-5.41-2.39-10.7-4.95-15.39-8.61-10.47-8.18-14.74-22.1-10.71-34.95,3.6-11.46,14.55-19.59,27.64-20.48,1.64-.11,3.29-.17,4.93-.25,12.97-.04,23.27,4.87,30.36,16.02,1.06,1.67,1.04,2.46-.75,3.53-4.64,2.79-9.2,5.72-13.67,8.77-1.6,1.09-2.26.94-3.23-.71-3.37-5.71-8.4-8.36-15.08-7.65-4.09.44-7.26,2.36-8.58,6.33-1.38,4.17-.62,8.08,2.81,11.12,3.46,3.07,7.76,4.66,11.91,6.48,6.72,2.94,13.46,5.83,19.67,9.83,14.74,9.49,17.15,24.73,13.37,37.56Z"/>
</svg>