<svg id="Layer_1" data-name="Layer 1" xmlns="http://www.w3.org/2000/svg" viewBox="0 0 146.36 153.11">
  <g>
    <path d="M139.92,64c-.09,24.6-16.76,42.54-39.66,42.7-23.71.15-40.36-18.24-40.18-44.37C60.25,37.88,77.3,20,100.27,20.16,123.56,20.31,140,38.48,139.92,64Z" transform="translate(-26.8 -20.16)"/>
    <path d="M99.34,173.19c-18.8,0-37.61-.13-56.4.08-6.85.07-12.62-1.35-15.28-8.27-2.78-7.21,1.65-11.9,6.6-16.07C68,120.46,130.78,120.17,165,148.36c5.24,4.31,10.27,9,7.21,16.82-3,7.56-9.47,8.15-16.49,8.08C136.94,173.07,118.14,173.19,99.34,173.19Z" transform="translate(-26.8 -20.16)"/>
  </g>
</svg>
