<svg id="Layer_1" data-name="Layer 1" xmlns="http://www.w3.org/2000/svg" viewBox="0 0 107.94 123.7">
  <defs>
    <style>
      .cls-1 {
        fill: #f2f2f2;
      }
    </style>
  </defs>
  <path class="cls-1" d="M117.5,33.5l.3-.2a6.75,6.75,0,0,0-2.4-2.6L67.1,2.9A5.93,5.93,0,0,0,64,2.2a7.09,7.09,0,0,0-3.1.7l-48,27.9A6.87,6.87,0,0,0,10,36.2V91.9a6.21,6.21,0,0,0,.9,3.4l-.2.1a5.74,5.74,0,0,0,1.9,1.9l48.2,27.9a5.93,5.93,0,0,0,3.1.7,7.09,7.09,0,0,0,3.1-.7l48-27.9a6.87,6.87,0,0,0,2.9-5.4V36.1A4.89,4.89,0,0,0,117.5,33.5ZM82,66V62h5V57h5v5h5v4H92v5H87V66Zm3.3-14a24.45,24.45,0,1,0,0,24.1l12.9,7.6a39.51,39.51,0,1,1,.1-39.2ZM115,66h-5v5h-4V66h-6V62h6V57h4v5h5Z" transform="translate(-10 -2.2)"/>
</svg>
