<svg id="Layer_1" data-name="Layer 1" xmlns="http://www.w3.org/2000/svg" viewBox="0 0 88.66 125.54">
  <defs>
    <style>
      .cls-1 {
        fill: #f2f2f2;
      }
    </style>
  </defs>
  <path class="cls-1" d="M19.67,26l8.07,90.49,36.2,10.05,36.31-10.06L108.33,26ZM88.88,76.49,86.53,98.38v1.87L64,106.55h0l0,0-22.72-6.23L39.73,83H50.87l.79,8.77L64,95.06v0l12.39-3.49L77.7,77H51.79l-.22-2.36L51.07,69l-.27-3H78.69l1-11H37.23L37,52.41l-.51-6L36.24,43H91.83l-.26,3.33L88.88,76.49M89,14.37,81.85,6H89V1H73V5.36L81.39,13H73v5H89Zm-19,0L63.19,6H70V1H55V5.36L62.73,13H55v5H70ZM52,13H44V6h8V1H38V18H52Z" transform="translate(-19.67 -1)"/>
</svg>
