<svg id="Layer_1" data-name="Layer 1" xmlns="http://www.w3.org/2000/svg" viewBox="0 0 142.62 137.7">
  <g>
    <path d="M100,50c19.93,16.65,39.2,32.53,58.1,48.83,2.43,2.09,4,6.35,4.17,9.68.49,12.13.38,24.3.14,36.45-.23,11.5-5.95,17.12-17.42,17.48-6.24.19-12.51-.22-18.74.1C116.65,163,112,159,112.44,149.1c.32-8-.18-16,.11-23.95.36-9.47-5.89-9.44-12.52-9.42s-12.91-.19-12.58,9.34c.29,8.32-.08,16.67.08,25,.18,8.8-4,12.72-12.7,12.47-6.94-.19-13.9.19-20.83-.1-10.27-.44-16.13-6.1-16.4-16.33-.34-12.89-.35-25.79.1-38.67a13.57,13.57,0,0,1,4.12-8.53C60.78,82.65,80,66.74,100,50Z" transform="translate(-27.76 -24.89)"/>
    <path d="M143.76,57.49c0-4.37.05-6.44,0-8.51-.18-6.54,3.78-8.2,9.39-8.21s9.47,1.76,9.36,8.26c-.09,5.2-.82,10.57.23,15.54s4,9.34,6,14.05c.4,1,.8,1.93,1.18,2.91a5.75,5.75,0,0,1-7.72,7.36,6.34,6.34,0,0,1-1.17-.72C142.9,73.73,125,58.93,107.61,43.58c-6.09-5.38-9.72-4.8-15.48.26C75.47,58.46,58.24,72.42,41.23,86.63c-1.33,1.11-2.57,2.94-4,3.16-1.1.16-2.21.25-3.33.3-4.57.19-7.74-4.9-5.2-8.7a3.74,3.74,0,0,1,.71-.82c15.1-13.23,30.66-26,46.1-38.81,26.21-21.83,22-23.1,49-.12C130.17,46.53,136.09,51.21,143.76,57.49Z" transform="translate(-27.76 -24.89)"/>
  </g>
</svg>
