<svg id="Layer_1" data-name="Layer 1" xmlns="http://www.w3.org/2000/svg" viewBox="0 0 88.86 124.97">
  <defs>
    <style>
      .cls-1 {
        fill: #f2f2f2;
      }
    </style>
  </defs>
  <path class="cls-1" d="M19.57,27l8.09,89.92,36.28,9.68,36.39-9.5,8.1-90.1Zm72,20.47-.51,5.84L90.88,56H48.31l1,12H89.87l-.27,2.23L87,99.14l-.19,1.69L64,107h0L41.2,101.06,39.65,84H50.82l.79,8.46L64,95.6v-.22l12.41-2.65L77.71,79H39.15L36.42,48.16,36.15,45H91.88ZM28,1.63h5.62V7.18h5.14V1.63h5.63V18.45H38.72V12.82H33.58v5.63H28ZM51.74,7.21h-5V1.63H62.31V7.21h-5V18.45H51.74Zm13-5.58h5.86l3.61,5.91,3.6-5.91h5.86V18.45h-5.6V10.11l-3.86,6h-.1l-3.87-6v8.34h-5.5V1.63Zm21.73,0h5.63V12.89H100v5.56H86.51Z" transform="translate(-19.57 -1.63)"/>
</svg>
