<?xml version="1.0" encoding="utf-8"?>
<!-- Generator: Adobe Illustrator 25.4.1, SVG Export Plug-In . SVG Version: 6.00 Build 0)  -->
<svg version="1.1" id="Layer_1" xmlns="http://www.w3.org/2000/svg" xmlns:xlink="http://www.w3.org/1999/xlink" x="0px" y="0px"
	 viewBox="0 0 240 240" style="enable-background:new 0 0 240 240;" xml:space="preserve">
<style type="text/css">
	.st0{fill:#EFEDD5;}
</style>
<g>
	<g transform="scale(10.66667,10.66667)">
		<path class="st0" d="M11.2,1.9c-5.2,0-9.4,4.2-9.4,9.4s4.2,9.4,9.4,9.4s9.4-4.2,9.4-9.4S16.4,1.9,11.2,1.9z M11.2,3.8
			c4.1,0,7.5,3.4,7.5,7.5c0,0.4,0,0.9-0.1,1.3c-0.2-0.1-0.6-0.1-1-0.1c-0.3,0-0.7,0-1,0.1c0.1-0.3,0.2-0.7,0.2-1.1
			c0-0.9-0.4-1.7-1.1-2.4c0.2-0.7,0.4-2-0.1-2.5c-1.5,0-2.3,1.1-2.3,1.1c-0.5-0.1-0.9-0.2-1.4-0.2c-0.6,0-1.3,0.1-1.8,0.3l0.2-0.1
			c0,0-0.8-1.1-2.3-1.1C7.3,7,7.5,8.4,7.7,9.1C7,9.8,6.6,10.6,6.6,11.5c0,0.3,0.1,0.6,0.1,0.9c-0.3,0-1.2-0.1-1.6-0.1
			c-0.3,0-0.9,0.1-1.3,0.2c-0.1-0.4-0.1-0.8-0.1-1.1C3.8,7.1,7.1,3.8,11.2,3.8z M5.1,12.5c0.4,0,1.5,0.1,1.6,0.1
			c0,0.1,0,0.1,0.1,0.1c-0.4,0-1.2-0.1-1.7,0c-0.3,0-0.8,0.2-1.2,0.3c0-0.1-0.1-0.2-0.1-0.4C4.3,12.5,4.8,12.5,5.1,12.5z M17.7,12.7
			c0.4,0,0.7,0.1,0.9,0.1c0,0.1,0,0.1-0.1,0.2c-0.2-0.1-0.6-0.1-1.1-0.1c-0.2,0-0.6,0-0.9,0c0,0,0-0.1,0-0.1
			C16.9,12.7,17.3,12.7,17.7,12.7z M5.7,12.9c0.5,0,1,0,1.2,0.1c0.5,0.9,1.5,1.6,3,1.9c-0.4,0.2-0.7,0.5-1,0.8c-0.2,0-0.5,0-0.7,0
			c-0.7,0-1.1-0.6-1.4-1.1c-0.4-0.5-0.8-0.6-1-0.6c-0.2,0-0.3,0.1-0.2,0.2c0.7,0.5,1,1.2,1.3,1.8c0.3,0.5,0.8,0.8,1.4,0.8h0.1
			c0,0.1,0,0.2,0,0.3v1c-2.2-0.9-3.8-2.7-4.4-5c0.4-0.1,0.8-0.2,1.1-0.2C5.3,12.9,5.5,12.9,5.7,12.9z M17.5,13c0.4,0,0.8,0.1,1,0.1
			c-0.5,1.9-1.8,3.6-3.5,4.5v-0.6c0-0.8-0.6-1.8-1.5-2.3c1.5-0.3,2.4-0.9,3-1.8C16.8,13,17.2,13,17.5,13z M11.7,16.9
			c0.3,0,0.5,0.2,0.5,0.5v1.3c-0.3,0-0.6,0.1-0.9,0.1v-1.4C11.2,17.1,11.5,16.9,11.7,16.9z M9.8,17.8c0.3,0,0.5,0.2,0.5,0.5v0.4
			c-0.3,0-0.6-0.1-0.9-0.2v-0.2C9.4,18,9.6,17.8,9.8,17.8z M13.6,17.8c0.2,0,0.4,0.2,0.5,0.4c-0.3,0.1-0.6,0.2-0.9,0.3v-0.2
			C13.1,18,13.3,17.8,13.6,17.8z"/>
	</g>
</g>
</svg>
