<?xml version="1.0" encoding="utf-8"?>
<!-- Generator: Adobe Illustrator 25.4.1, SVG Export Plug-In . SVG Version: 6.00 Build 0)  -->
<svg version="1.1" id="Layer_1" xmlns="http://www.w3.org/2000/svg" xmlns:xlink="http://www.w3.org/1999/xlink" x="0px" y="0px"
	 viewBox="0 0 240 240" style="enable-background:new 0 0 240 240;" xml:space="preserve">
<style type="text/css">
	.st0{fill:#EFEDD5;}
</style>
<path class="st0" d="M120,20C64.8,20,20,64.8,20,120c0,42.4,26.4,78.5,63.6,93.1c-0.9-7.9-1.7-20.1,0.3-28.7
	c1.8-7.8,11.7-49.7,11.7-49.7s-3-6-3-14.8c0-13.9,8.1-24.3,18.1-24.3c8.5,0,12.7,6.4,12.7,14.1c0,8.6-5.5,21.4-8.3,33.3
	c-2.4,10,5,18.1,14.8,18.1c17.8,0,31.4-18.7,31.4-45.8c0-23.9-17.2-40.7-41.8-40.7c-28.5,0-45.2,21.3-45.2,43.4
	c0,8.6,3.3,17.8,7.4,22.8c0.8,1,0.9,1.9,0.7,2.9c-0.8,3.2-2.4,9.9-2.8,11.3c-0.4,1.8-1.5,2.2-3.3,1.3c-12.5-5.8-20.3-24.1-20.3-38.7
	c0-31.5,22.9-60.5,66.1-60.5c34.7,0,61.7,24.7,61.7,57.8c0,34.5-21.7,62.2-51.9,62.2c-10.1,0-19.7-5.3-22.9-11.5
	c0,0-5,19.1-6.2,23.8c-2.3,8.7-8.3,19.6-12.4,26.2c9.3,2.9,19.3,4.4,29.6,4.4c55.2,0,100-44.8,100-100S175.2,20,120,20z"/>
</svg>
