<svg id="Layer_1" data-name="Layer 1" xmlns="http://www.w3.org/2000/svg" viewBox="0 0 133.21 166.53">
  <path d="M166.54,37c0-14.19-6.06-20.1-20.39-20.14q-46.28-.14-92.56,0c-14.2.05-20.07,6-20.14,20.37-.1,20.8,0,41.61,0,62.41,0,21.15-.08,42.3,0,63.44.07,14.21,6,20.11,20.36,20.16q46.29.15,92.57,0c14.17-.05,20.12-6.07,20.15-20.39Q166.68,99.87,166.54,37ZM84,50.08c1.71-.12,3.44,0,5.15,0,6-.16,10.6,2.06,10.49,8.5s-5,8.36-10.82,8.16c-1.72,0-3.44,0-6,0-6-.58-15.87,2.39-15.68-8.48C67.42,47.56,77.26,50.55,84,50.08Zm39.87,99.8c-8.28.07-16.56,0-24.84,0-7.59,0-15.17.09-22.76,0-5.61-.09-9.56-2.77-9.32-8.67.22-5.22,3.91-7.85,9.1-7.87q23.8-.09,47.6,0c5.69,0,9.49,2.86,9.3,8.68C132.82,147.28,129.1,149.83,123.91,149.88Zm9.08-41c-.25,5.25-4,7.71-9.22,7.74-7.93.05-15.86,0-23.79,0s-15.87.06-23.8,0c-5.15,0-9-2.5-9.19-7.77-.24-5.84,3.58-8.73,9.24-8.76q23.79-.14,47.59,0C129.53,100.09,133.27,103.05,133,108.86Zm-8.9-42.21c-7.17.74-7.38-3.85-7.54-9.16-.22-7,4-7.39,9.3-7.52,7-.18,7.42,4,7.53,9.31C133.53,66.26,129.5,67.17,124.09,66.65Z" transform="translate(-33.39 -16.74)"/>
</svg>
