<?xml version="1.0" encoding="UTF-8"?>
<svg id="Layer_1" data-name="Layer 1" xmlns="http://www.w3.org/2000/svg" viewBox="0 0 250 328.51">
  <defs>
    <style>
      .cls-1 {
        fill: #eeecd4;
        stroke-width: 0px;
      }
    </style>
  </defs>
  <path class="cls-1" d="m249.97,99.13c0-2.35-.71-3.94-2.35-5.58-30.36-30.27-60.67-60.59-90.96-90.93-.77-.77-2.01-1.26-2.07-2.62H0c.08,1.27.24,2.54.24,3.8.01,106.91.03,213.82-.07,320.73,0,3.21.72,3.98,3.96,3.98,80.72-.1,161.44-.1,242.16-.02,2.79,0,3.71-.51,3.71-3.57-.1-75.26-.09-150.53-.03-225.79ZM57.19,190.88h-.04c0,8.87.01,17.74,0,26.6,0,3.77-.6,7.45-1.99,10.96-3.34,8.47-14.65,13.16-23.07,9.63-.48-.2-1.26-.25-1.22-.83.22-3.18.5-6.36.89-9.53.09-.71.82-.32,1.32-.21.83.17,1.68.32,2.53.39,6.25.54,8.65-1.36,9.37-7.59.28-2.43.41-4.9.42-7.35.03-16.88.06-33.76-.03-50.64-.01-2.18.43-3.1,2.76-2.83,2.93.34,6.86-1.24,8.55.64,1.46,1.62.49,5.47.5,8.33.03,7.48.01,14.96.01,22.44Zm33.05,46.73c-6.62,1.96-13.08,1.19-19.34-1.59-1.75-.77-2.68-1.69-1.85-3.9.96-2.57,1.42-5.33,2.16-8.26,2.69,1.77,5.33,3.02,8.27,3.54,4.78.83,9.36.6,12.36-3.77,3.07-4.47,2.71-9.28.11-13.9-1.6-2.84-4.11-4.89-6.68-6.82-3.33-2.51-6.65-5.02-9.43-8.15-11.36-12.78-5.97-31.71,10.16-35.35,5.32-1.2,10.61-.73,15.61,1.73,1.57.77,2.18,1.77,1.59,3.57-.89,2.71-1.59,5.48-2.46,8.52-2.62-1.83-4.92-3.06-7.68-3.35-5.12-.53-8.52.89-10.38,4.5-1.95,3.77-1.29,8.89,1.66,12.26,1.84,2.1,4.1,3.71,6.35,5.36,3.8,2.78,7.5,5.65,10.32,9.51,9.61,13.16,4.11,31.71-10.77,36.12Zm70.74-39.23c-.17,9.31-.8,18.56-4.67,27.23-4.1,9.19-11.19,13.72-20.28,13.11-6.3-.42-10.74-3.83-14.02-8.92-3.72-5.77-5.36-12.27-6.18-18.99-1.4-11.44-1.22-22.81,2.25-33.92,1.58-5.04,4-9.63,7.94-13.31,7.93-7.39,19.85-6.58,26.59,1.89,4.89,6.15,6.63,13.51,7.64,21.07.52,3.91.9,7.86.72,11.83Zm51.49,39.69c-7.88-.11-7.89,0-10.72-7.17-5.4-13.67-10.77-27.35-16.17-41.02-.26-.65-.16-1.56-.9-1.72,0,15.62-.06,31.29.07,46.97.02,2.46-.65,3.15-3.01,2.93-2.53-.24-5.92.82-7.43-.46-1.78-1.51-.56-4.99-.56-7.61-.06-22.45,0-44.9-.09-67.34,0-2.42.47-3.25,3.08-3.19,7.74.17,7.74.04,10.59,7.36,5.36,13.8,10.72,27.6,16.1,41.39.24.62.24,1.44,1.16,1.88,0-2.43,0-4.74,0-7.05-.06-13.68-.08-27.36-.22-41.05-.02-1.94.44-2.51,2.46-2.53,8.58-.06,8.58-.14,8.58,8.29,0,22.45-.04,44.9.06,67.34.01,2.43-.61,3.02-3,2.98Zm10.21-139.5c-22.66,0-45.32-.04-67.97.06-2.55.01-3.41-.44-3.4-3.23.12-26.29.07-52.58.07-78.24,26.98,26.98,54.24,54.24,81.42,81.41h-10.12Z"/>
  <path class="cls-1" d="m127.2,198.97c.32-7.23.41-14.51,2.91-21.46,1.4-3.89,3.06-7.97,7.99-7.99,4.98-.02,6.84,4.12,7.92,8.03,3.88,14.08,3.95,28.28,0,42.35-1.05,3.76-2.77,7.84-7.62,7.97-4.99.13-6.72-3.9-8.2-7.75-2.61-6.8-2.68-13.99-2.99-21.16Z"/>
</svg>