<?xml version="1.0" encoding="UTF-8"?>
<svg id="Layer_1" data-name="Layer 1" xmlns="http://www.w3.org/2000/svg" viewBox="0 0 300 299.89">
  <defs>
    <style>
      .cls-1 {
        fill: #eeecd4;
        stroke-width: 0px;
      }
    </style>
  </defs>
  <path class="cls-1" d="m96.18,135.15c-4.26-.94-8.55-.95-12.86-1.05-3.16-.07-4.39,1.47-4.91,4.34-1.23,6.68-2.67,13.33-3.97,20-1.45,7.47-1.39,7.51,6.21,7.45,2.47-.29,4.93-.63,7.4-.86,6.92-.64,10.56-4.87,12.41-11.16,1.13-3.86,1.68-7.76,1.52-11.79-.15-3.86-1.95-6.09-5.79-6.94Z"/>
  <path class="cls-1" d="m226.33,134.99c-4.11-.97-8.25-.76-12.4-.86-2.49-.06-3.63,1.2-4.08,3.44-1.66,8.31-3.31,16.62-5.02,24.92-.45,2.17.4,3.18,2.5,3.26,1.49.06,2.99.01,3.9.01,14.47-.42,18.98-3.71,21.31-15.31.42-2.11.67-4.28.77-6.43.25-5.76-1.42-7.71-6.99-9.02Z"/>
  <path class="cls-1" d="m299.93,25.95c-.02-19.14-6.61-25.84-25.53-25.87C191.74-.03,109.07-.02,26.41.07,6.38.09.12,6.55.07,26.92c-.1,41.02-.03,82.04-.03,123.06,0,41.61-.12,83.23.06,124.84.07,17.86,6.96,24.93,24.62,24.96,83.26.14,166.52.13,249.78.01,18.83-.03,25.42-6.79,25.44-25.95.1-82.64.1-165.27,0-247.91Zm-180.86,122.13c-2.68,16.62-13.37,32.18-36,31.31-12.95-.5-12.98.02-15.51,12.65-.52,2.61-.97,5.23-1.46,7.84-4,0-8.03-.29-11.99.09-3.46.33-4.77-.67-4.01-4.09,4.58-22.47,9.19-44.93,13.73-67.4,1.6-7.91,1.52-7.93,9.39-7.93,7.49,0,14.97-.03,22.46,0,17.17.1,26.11,10.6,23.38,27.52Zm50.51,31.23c-14.61-.2-12.57,1.6-10.04-11.47,1.58-8.17,3.3-16.31,4.86-24.48,1.15-6.07-.63-8.39-6.68-9.06-12.54-1.38-12.82-1.15-15.21,11-1.96,9.96-4.09,19.89-5.93,29.87-.57,3.07-2.01,4.16-5.04,4.14-14.66-.08-12.23.91-9.84-11.36,4.42-22.7,8.94-45.38,13.41-68.07h16c.21,5.57-1.59,10.82-2.74,16.16-.79,3.66.27,4.62,3.88,4.59,5.97-.06,11.99-.7,17.89.94,9.37,2.6,13.14,7.87,11.5,17.37-2.09,12.13-4.73,24.16-6.98,36.26-.57,3.05-2.05,4.15-5.08,4.11Zm80.53-28.43c-.63,1.88-1.23,3.78-1.91,5.65-5.12,14.25-15.82,22.32-30.08,22.67-3.81.09-7.65.29-11.44.02-3.91-.28-5.72,1.17-6.32,5.09-.81,5.23-2.14,10.39-3.25,15.57h-16c3.75-19.27,7.49-38.53,11.25-57.8,1.15-5.88,2.41-11.74,3.49-17.63.51-2.77,1.9-3.95,4.75-3.92,9.83.1,19.67-.2,29.49.14,10.06.35,16.84,5.54,20.02,15.21v15Z"/>
</svg>